<svg width="86" height="86" viewBox="0 0 86 86" fill="none" xmlns="http://www.w3.org/2000/svg">
<path d="M39.0139 33.1348C43.6227 33.1348 47.3588 36.8709 47.3588 41.4798V56.077C47.3588 60.6859 43.6227 64.422 39.0138 64.422H30.0574L24.802 70.9091C24.4381 71.3584 23.7115 71.1011 23.7115 70.5228V64.422H23.689C19.0801 64.422 15.344 60.6859 15.344 56.077V41.4798C15.344 36.8709 19.0801 33.1348 23.689 33.1348H39.0139Z" fill="black"/>
<path d="M48.1559 19.0781C43.5471 19.0781 39.8109 22.8143 39.8109 27.4231V50.0241C39.8109 54.6329 43.5471 58.3691 48.1559 58.3691H59.0604L66.0059 66.9425C66.3699 67.3918 67.0964 67.1344 67.0964 66.5562V58.3691H67.1188C71.7276 58.3691 75.4638 54.6329 75.4638 50.0241V27.4231C75.4638 22.8143 71.7276 19.0781 67.1188 19.0781H48.1559Z" fill="black"/>
<path fill-rule="evenodd" clip-rule="evenodd" d="M35.1864 30.7385C39.9317 30.7385 43.7784 34.5853 43.7784 39.3305V53.4338C43.7784 58.179 39.9317 62.0258 35.1864 62.0258H26.4769L20.1309 69.8592V62.0229C15.4895 61.9037 11.7636 58.1039 11.7636 53.4338V39.3305C11.7636 34.5853 15.6103 30.7385 20.3556 30.7385H35.1864Z" fill="white"/>
<path fill-rule="evenodd" clip-rule="evenodd" d="M26.4769 62.0258H35.1864C39.9317 62.0258 43.7784 58.179 43.7784 53.4338V39.3305C43.7784 34.5853 39.9317 30.7385 35.1864 30.7385H20.3556C15.6103 30.7385 11.7636 34.5853 11.7636 39.3305V53.4338C11.7636 58.1039 15.4895 61.9038 20.1308 62.0229V69.8592L26.4769 62.0258ZM18.9034 63.1465C14.1686 62.4445 10.5361 58.3635 10.5361 53.4338V39.3305C10.5361 33.9074 14.9324 29.5111 20.3556 29.5111H35.1864C40.6096 29.5111 45.0059 33.9074 45.0059 39.3305V53.4338C45.0059 58.8569 40.6096 63.2532 35.1864 63.2532H27.0622L21.0846 70.6318C20.7573 71.0358 20.2111 71.1898 19.721 71.0162C19.231 70.8426 18.9034 70.3791 18.9034 69.8592V63.1465Z" fill="black"/>
<path fill-rule="evenodd" clip-rule="evenodd" d="M12.4333 39.5575C12.4333 35.1512 16.0053 31.5792 20.4116 31.5792H35.1302C39.5365 31.5792 43.1084 35.1512 43.1084 39.5575V53.3187C43.1084 57.725 39.5364 61.297 35.1302 61.297H26.3368C25.9978 61.297 25.7231 61.0222 25.7231 60.6833C25.7231 60.3443 25.9978 60.0695 26.3368 60.0695H35.1302C38.8586 60.0695 41.881 57.0471 41.881 53.3187V39.5575C41.881 35.8291 38.8586 32.8067 35.1302 32.8067H20.4116C16.6832 32.8067 13.6607 35.8291 13.6607 39.5575V53.3187C13.6607 57.0471 16.6832 60.0695 20.4116 60.0695H21.0122C21.3512 60.0695 21.6259 60.3443 21.6259 60.6833C21.6259 61.0222 21.3512 61.297 21.0122 61.297H20.4116C16.0053 61.297 12.4333 57.725 12.4333 53.3187V39.5575Z" fill="black"/>
<path fill-rule="evenodd" clip-rule="evenodd" d="M16.721 43.9319C16.721 43.4235 17.1331 43.0113 17.6415 43.0113H25.2158C25.7242 43.0113 26.1363 43.4235 26.1363 43.9319C26.1363 44.4403 25.7242 44.8525 25.2158 44.8525H17.6415C17.1331 44.8525 16.721 44.4403 16.721 43.9319Z" fill="black"/>
<path fill-rule="evenodd" clip-rule="evenodd" d="M16.721 38.1109C16.721 37.6025 17.1331 37.1903 17.6415 37.1903H35.4892C35.9977 37.1903 36.4098 37.6025 36.4098 38.1109C36.4098 38.6193 35.9977 39.0314 35.4892 39.0314H17.6415C17.1331 39.0314 16.721 38.6193 16.721 38.1109Z" fill="black"/>
<path fill-rule="evenodd" clip-rule="evenodd" d="M16.721 49.3889C16.721 48.8805 17.1331 48.4684 17.6415 48.4684H20.7926C21.301 48.4684 21.7132 48.8805 21.7132 49.3889C21.7132 49.8974 21.301 50.3095 20.7926 50.3095H17.6415C17.1331 50.3095 16.721 49.8974 16.721 49.3889Z" fill="black"/>
<path fill-rule="evenodd" clip-rule="evenodd" d="M43.6384 16.0897C38.8932 16.0897 35.0464 19.9365 35.0464 24.6817V46.7887C35.0464 51.5339 38.8932 55.3807 43.6384 55.3807H54.2961L62.3322 65.3002V55.3778C66.9735 55.2586 70.6993 51.4587 70.6993 46.7887V24.6817C70.6993 19.9365 66.8526 16.0897 62.1073 16.0897H43.6384Z" fill="white"/>
<path fill-rule="evenodd" clip-rule="evenodd" d="M54.2961 55.3807H43.6384C38.8932 55.3807 35.0464 51.534 35.0464 46.7887V24.6817C35.0464 19.9365 38.8932 16.0897 43.6384 16.0897H62.1073C66.8526 16.0897 70.6993 19.9365 70.6993 24.6817V46.7887C70.6993 51.4588 66.9735 55.2586 62.3322 55.3778V65.3002L54.2961 55.3807ZM63.5596 56.5014C68.2943 55.7994 71.9268 51.7184 71.9268 46.7887V24.6817C71.9268 19.2586 67.5304 14.8623 62.1073 14.8623H43.6384C38.2153 14.8623 33.819 19.2586 33.819 24.6817V46.7887C33.819 52.2118 38.2153 56.6082 43.6384 56.6082H53.7108L61.3785 66.0729C61.7057 66.4768 62.252 66.6308 62.742 66.4572C63.2321 66.2836 63.5596 65.8201 63.5596 65.3002V56.5014Z" fill="black"/>
<path fill-rule="evenodd" clip-rule="evenodd" d="M35.8212 25.0828C35.8212 20.6765 39.3932 17.1045 43.7995 17.1045H61.856C66.2623 17.1045 69.8343 20.6765 69.8343 25.0828V46.207C69.8343 50.6133 66.2623 54.1852 61.856 54.1852H61.6396C61.3007 54.1852 61.0259 53.9105 61.0259 53.5715C61.0259 53.2326 61.3007 52.9578 61.6396 52.9578H61.856C65.5844 52.9578 68.6069 49.9354 68.6069 46.207V25.0828C68.6069 21.3544 65.5844 18.3319 61.856 18.3319H43.7995C40.0711 18.3319 37.0487 21.3544 37.0487 25.0828V46.207C37.0487 49.9354 40.0711 52.9578 43.7995 52.9578H54.7921C55.131 52.9578 55.4058 53.2326 55.4058 53.5715C55.4058 53.9105 55.131 54.1852 54.7921 54.1852H43.7995C39.3932 54.1852 35.8212 50.6133 35.8212 46.207V25.0828Z" fill="black"/>
<path fill-rule="evenodd" clip-rule="evenodd" d="M41.5197 37.5321C41.5197 36.8542 42.0693 36.3047 42.7472 36.3047H63.0071C63.685 36.3047 64.2345 36.8542 64.2345 37.5321C64.2345 38.21 63.685 38.7595 63.0071 38.7595H42.7472C42.0693 38.7595 41.5197 38.21 41.5197 37.5321Z" fill="black"/>
<path fill-rule="evenodd" clip-rule="evenodd" d="M41.5197 31.1541C41.5197 30.4763 42.0693 29.9267 42.7472 29.9267H63.0071C63.685 29.9267 64.2345 30.4763 64.2345 31.1541C64.2345 31.832 63.685 32.3816 63.0071 32.3816H42.7472C42.0693 32.3816 41.5197 31.832 41.5197 31.1541Z" fill="black"/>
<path fill-rule="evenodd" clip-rule="evenodd" d="M41.5196 25.0177C41.5196 24.3398 42.0692 23.7903 42.7471 23.7903H63.007C63.6849 23.7903 64.2344 24.3398 64.2344 25.0177C64.2344 25.6956 63.6849 26.2451 63.007 26.2451H42.7471C42.0692 26.2451 41.5196 25.6956 41.5196 25.0177Z" fill="black"/>
<path fill-rule="evenodd" clip-rule="evenodd" d="M41.5197 43.5107C41.5197 42.8328 42.0693 42.2833 42.7472 42.2833H53.7454C54.4233 42.2833 54.9728 42.8328 54.9728 43.5107C54.9728 44.1886 54.4233 44.7381 53.7454 44.7381H42.7472C42.0693 44.7381 41.5197 44.1886 41.5197 43.5107Z" fill="black"/>
</svg>
